<mxfile host="app.diagrams.net" modified="2024-06-24T14:06:48.944Z" agent="Mozilla/5.0 (Windows NT 10.0; Win64; x64) AppleWebKit/537.36 (KHTML, like Gecko) Chrome/126.0.0.0 Safari/537.36" etag="ALAwEWCwoSI0k26Yeh0q" version="24.6.2" type="google">
  <diagram name="Página-1" id="Et5_oEfdTs3J56qVDUQK">
    <mxGraphModel dx="3787" dy="2285" grid="1" gridSize="10" guides="1" tooltips="1" connect="1" arrows="1" fold="1" page="1" pageScale="1" pageWidth="827" pageHeight="1169" math="0" shadow="0">
      <root>
        <mxCell id="0" />
        <mxCell id="1" parent="0" />
        <mxCell id="SyitlZRRvDJ0lu8L_DGC-1" value="CLIENTE" style="shape=umlActor;verticalLabelPosition=bottom;verticalAlign=top;html=1;outlineConnect=0;fillColor=#1ba1e2;strokeColor=#006EAF;fontColor=#ffffff;" vertex="1" parent="1">
          <mxGeometry x="-140" width="130" height="120" as="geometry" />
        </mxCell>
        <mxCell id="SyitlZRRvDJ0lu8L_DGC-7" value="ADMINISTRADOR" style="shape=umlActor;verticalLabelPosition=bottom;verticalAlign=top;html=1;outlineConnect=0;fillColor=#1ba1e2;strokeColor=#006EAF;fontColor=#ffffff;" vertex="1" parent="1">
          <mxGeometry x="1260" y="780" width="130" height="100" as="geometry" />
        </mxCell>
        <mxCell id="SyitlZRRvDJ0lu8L_DGC-8" value="Iniciar sesión&lt;div&gt;&lt;br&gt;&lt;/div&gt;&lt;div&gt;Ingresar datos&lt;/div&gt;" style="ellipse;whiteSpace=wrap;html=1;" vertex="1" parent="1">
          <mxGeometry x="160" y="40" width="120" height="80" as="geometry" />
        </mxCell>
        <mxCell id="SyitlZRRvDJ0lu8L_DGC-9" value="" style="endArrow=none;html=1;rounded=0;exitX=0;exitY=0.5;exitDx=0;exitDy=0;entryX=1;entryY=0.5;entryDx=0;entryDy=0;" edge="1" parent="1" source="SyitlZRRvDJ0lu8L_DGC-8" target="SyitlZRRvDJ0lu8L_DGC-8">
          <mxGeometry width="50" height="50" relative="1" as="geometry">
            <mxPoint x="410" y="120" as="sourcePoint" />
            <mxPoint x="460" y="70" as="targetPoint" />
          </mxGeometry>
        </mxCell>
        <mxCell id="SyitlZRRvDJ0lu8L_DGC-10" value="Cambio de contraseña" style="ellipse;whiteSpace=wrap;html=1;" vertex="1" parent="1">
          <mxGeometry x="345" y="-15" width="116" height="45" as="geometry" />
        </mxCell>
        <mxCell id="SyitlZRRvDJ0lu8L_DGC-11" value="Ingresar usuario" style="ellipse;whiteSpace=wrap;html=1;" vertex="1" parent="1">
          <mxGeometry x="350" y="120" width="106" height="50" as="geometry" />
        </mxCell>
        <mxCell id="SyitlZRRvDJ0lu8L_DGC-12" value="Gestionar productos&lt;div&gt;&lt;br&gt;&lt;/div&gt;&lt;div&gt;Modificar Productos&lt;/div&gt;&lt;div&gt;Busqueda de productos&lt;/div&gt;" style="ellipse;whiteSpace=wrap;html=1;" vertex="1" parent="1">
          <mxGeometry x="110" y="240" width="150" height="90" as="geometry" />
        </mxCell>
        <mxCell id="SyitlZRRvDJ0lu8L_DGC-13" value="" style="endArrow=none;html=1;rounded=0;exitX=0;exitY=0.5;exitDx=0;exitDy=0;entryX=1.02;entryY=0.433;entryDx=0;entryDy=0;entryPerimeter=0;" edge="1" parent="1" target="SyitlZRRvDJ0lu8L_DGC-12">
          <mxGeometry width="50" height="50" relative="1" as="geometry">
            <mxPoint x="110" y="280" as="sourcePoint" />
            <mxPoint x="230" y="280" as="targetPoint" />
          </mxGeometry>
        </mxCell>
        <mxCell id="SyitlZRRvDJ0lu8L_DGC-14" value="Ingresar usuario" style="ellipse;whiteSpace=wrap;html=1;" vertex="1" parent="1">
          <mxGeometry x="320" y="210" width="106" height="50" as="geometry" />
        </mxCell>
        <mxCell id="SyitlZRRvDJ0lu8L_DGC-15" value="Ingresar usuario" style="ellipse;whiteSpace=wrap;html=1;" vertex="1" parent="1">
          <mxGeometry x="116" y="410" width="106" height="50" as="geometry" />
        </mxCell>
        <mxCell id="SyitlZRRvDJ0lu8L_DGC-16" value="Ingresar usuario" style="ellipse;whiteSpace=wrap;html=1;" vertex="1" parent="1">
          <mxGeometry x="308" y="350" width="106" height="50" as="geometry" />
        </mxCell>
        <mxCell id="SyitlZRRvDJ0lu8L_DGC-17" value="Registrar la salida de productos por ventas&amp;nbsp;" style="ellipse;whiteSpace=wrap;html=1;" vertex="1" parent="1">
          <mxGeometry x="222" y="700" width="134" height="60" as="geometry" />
        </mxCell>
        <mxCell id="SyitlZRRvDJ0lu8L_DGC-18" value="Actualiza Producto" style="ellipse;whiteSpace=wrap;html=1;" vertex="1" parent="1">
          <mxGeometry x="280" y="600" width="106" height="50" as="geometry" />
        </mxCell>
        <mxCell id="SyitlZRRvDJ0lu8L_DGC-19" value="Registrar la entrada de nuevos productos" style="ellipse;whiteSpace=wrap;html=1;" vertex="1" parent="1">
          <mxGeometry x="154.5" y="510" width="131" height="60" as="geometry" />
        </mxCell>
        <mxCell id="SyitlZRRvDJ0lu8L_DGC-20" value="Gestionar Inventario" style="ellipse;whiteSpace=wrap;html=1;" vertex="1" parent="1">
          <mxGeometry x="80" y="600" width="118" height="60" as="geometry" />
        </mxCell>
        <mxCell id="SyitlZRRvDJ0lu8L_DGC-22" value="Gestionar ventas&lt;div&gt;&lt;br&gt;&lt;/div&gt;&lt;div&gt;Gestionar inventario&lt;/div&gt;&lt;div&gt;&lt;br&gt;&lt;/div&gt;&lt;div&gt;Gestionar proveedor&lt;/div&gt;&lt;div&gt;&lt;br&gt;&lt;/div&gt;" style="ellipse;whiteSpace=wrap;html=1;" vertex="1" parent="1">
          <mxGeometry x="860" y="260" width="150" height="110" as="geometry" />
        </mxCell>
        <mxCell id="SyitlZRRvDJ0lu8L_DGC-23" value="" style="endArrow=none;html=1;rounded=0;exitX=0.04;exitY=0.291;exitDx=0;exitDy=0;exitPerimeter=0;entryX=0.933;entryY=0.264;entryDx=0;entryDy=0;entryPerimeter=0;" edge="1" parent="1" source="SyitlZRRvDJ0lu8L_DGC-22" target="SyitlZRRvDJ0lu8L_DGC-22">
          <mxGeometry width="50" height="50" relative="1" as="geometry">
            <mxPoint x="760" y="450" as="sourcePoint" />
            <mxPoint x="810" y="400" as="targetPoint" />
          </mxGeometry>
        </mxCell>
        <mxCell id="SyitlZRRvDJ0lu8L_DGC-24" value="Procesar el pago" style="ellipse;whiteSpace=wrap;html=1;" vertex="1" parent="1">
          <mxGeometry x="750" y="420" width="106" height="50" as="geometry" />
        </mxCell>
        <mxCell id="SyitlZRRvDJ0lu8L_DGC-25" value="Modificar estado de la venta" style="ellipse;whiteSpace=wrap;html=1;" vertex="1" parent="1">
          <mxGeometry x="650" y="350" width="106" height="50" as="geometry" />
        </mxCell>
        <mxCell id="SyitlZRRvDJ0lu8L_DGC-26" value="Modificar estado de la venta&amp;nbsp;" style="ellipse;whiteSpace=wrap;html=1;" vertex="1" parent="1">
          <mxGeometry x="590" y="270" width="106" height="50" as="geometry" />
        </mxCell>
        <mxCell id="SyitlZRRvDJ0lu8L_DGC-27" value="Calcular costos de la venta&amp;nbsp;" style="ellipse;whiteSpace=wrap;html=1;" vertex="1" parent="1">
          <mxGeometry x="650" y="210" width="106" height="50" as="geometry" />
        </mxCell>
        <mxCell id="SyitlZRRvDJ0lu8L_DGC-28" value="Agregar productos a la venta&amp;nbsp;" style="ellipse;whiteSpace=wrap;html=1;" vertex="1" parent="1">
          <mxGeometry x="750" y="160" width="106" height="50" as="geometry" />
        </mxCell>
        <mxCell id="SyitlZRRvDJ0lu8L_DGC-29" value="Crear nueva venta" style="ellipse;whiteSpace=wrap;html=1;" vertex="1" parent="1">
          <mxGeometry x="864" y="130" width="106" height="50" as="geometry" />
        </mxCell>
        <mxCell id="SyitlZRRvDJ0lu8L_DGC-30" value="Registrar informacion&amp;nbsp; del cliente&amp;nbsp;" style="ellipse;whiteSpace=wrap;html=1;" vertex="1" parent="1">
          <mxGeometry x="890" y="440" width="106" height="50" as="geometry" />
        </mxCell>
        <mxCell id="SyitlZRRvDJ0lu8L_DGC-31" value="Realizar pagos" style="ellipse;whiteSpace=wrap;html=1;" vertex="1" parent="1">
          <mxGeometry x="784" y="690" width="106" height="50" as="geometry" />
        </mxCell>
        <mxCell id="SyitlZRRvDJ0lu8L_DGC-32" value="Recibir comprobante de pagos" style="ellipse;whiteSpace=wrap;html=1;" vertex="1" parent="1">
          <mxGeometry x="769" y="830" width="136" height="50" as="geometry" />
        </mxCell>
        <mxCell id="SyitlZRRvDJ0lu8L_DGC-33" value="Verificar los datos ingresados" style="ellipse;whiteSpace=wrap;html=1;" vertex="1" parent="1">
          <mxGeometry x="566" y="760" width="130" height="50" as="geometry" />
        </mxCell>
        <mxCell id="SyitlZRRvDJ0lu8L_DGC-34" value="ingresar datos" style="ellipse;whiteSpace=wrap;html=1;" vertex="1" parent="1">
          <mxGeometry x="566" y="640" width="106" height="50" as="geometry" />
        </mxCell>
        <mxCell id="SyitlZRRvDJ0lu8L_DGC-35" value="Seleccionar metodo de pago" style="ellipse;whiteSpace=wrap;html=1;" vertex="1" parent="1">
          <mxGeometry x="730" y="570" width="106" height="50" as="geometry" />
        </mxCell>
        <mxCell id="SyitlZRRvDJ0lu8L_DGC-36" value="" style="endArrow=none;html=1;rounded=0;entryX=0;entryY=0.5;entryDx=0;entryDy=0;" edge="1" parent="1" source="SyitlZRRvDJ0lu8L_DGC-1" target="SyitlZRRvDJ0lu8L_DGC-8">
          <mxGeometry width="50" height="50" relative="1" as="geometry">
            <mxPoint x="290" y="190" as="sourcePoint" />
            <mxPoint x="340" y="140" as="targetPoint" />
          </mxGeometry>
        </mxCell>
        <mxCell id="SyitlZRRvDJ0lu8L_DGC-37" value="INCLUDE" style="endArrow=classic;html=1;rounded=0;entryX=0;entryY=0.5;entryDx=0;entryDy=0;" edge="1" parent="1" source="SyitlZRRvDJ0lu8L_DGC-8" target="SyitlZRRvDJ0lu8L_DGC-11">
          <mxGeometry relative="1" as="geometry">
            <mxPoint x="260" y="160" as="sourcePoint" />
            <mxPoint x="360" y="160" as="targetPoint" />
          </mxGeometry>
        </mxCell>
        <mxCell id="SyitlZRRvDJ0lu8L_DGC-39" value="" style="endArrow=classic;html=1;rounded=0;exitX=1;exitY=0;exitDx=0;exitDy=0;entryX=0;entryY=0.5;entryDx=0;entryDy=0;" edge="1" parent="1" target="SyitlZRRvDJ0lu8L_DGC-10">
          <mxGeometry relative="1" as="geometry">
            <mxPoint x="269.99640687119273" y="59.21572875253821" as="sourcePoint" />
            <mxPoint x="339.57" y="30" as="targetPoint" />
          </mxGeometry>
        </mxCell>
        <mxCell id="SyitlZRRvDJ0lu8L_DGC-40" value="EXTENDS" style="edgeLabel;resizable=0;html=1;;align=center;verticalAlign=middle;" connectable="0" vertex="1" parent="SyitlZRRvDJ0lu8L_DGC-39">
          <mxGeometry relative="1" as="geometry">
            <mxPoint x="-1" y="5" as="offset" />
          </mxGeometry>
        </mxCell>
        <mxCell id="SyitlZRRvDJ0lu8L_DGC-41" value="" style="endArrow=classic;html=1;rounded=0;exitX=0.5;exitY=1;exitDx=0;exitDy=0;entryX=0.616;entryY=-0.033;entryDx=0;entryDy=0;entryPerimeter=0;" edge="1" parent="1" source="SyitlZRRvDJ0lu8L_DGC-12" target="SyitlZRRvDJ0lu8L_DGC-15">
          <mxGeometry relative="1" as="geometry">
            <mxPoint x="279.99640687119273" y="69.21572875253821" as="sourcePoint" />
            <mxPoint x="355" y="18" as="targetPoint" />
          </mxGeometry>
        </mxCell>
        <mxCell id="SyitlZRRvDJ0lu8L_DGC-42" value="EXTENDS" style="edgeLabel;resizable=0;html=1;;align=center;verticalAlign=middle;" connectable="0" vertex="1" parent="SyitlZRRvDJ0lu8L_DGC-41">
          <mxGeometry relative="1" as="geometry">
            <mxPoint x="-1" y="5" as="offset" />
          </mxGeometry>
        </mxCell>
        <mxCell id="SyitlZRRvDJ0lu8L_DGC-43" value="" style="endArrow=classic;html=1;rounded=0;exitX=1;exitY=0.5;exitDx=0;exitDy=0;" edge="1" parent="1" source="SyitlZRRvDJ0lu8L_DGC-12" target="SyitlZRRvDJ0lu8L_DGC-16">
          <mxGeometry relative="1" as="geometry">
            <mxPoint x="289.99640687119273" y="79.21572875253821" as="sourcePoint" />
            <mxPoint x="365" y="28" as="targetPoint" />
          </mxGeometry>
        </mxCell>
        <mxCell id="SyitlZRRvDJ0lu8L_DGC-44" value="EXTENDS" style="edgeLabel;resizable=0;html=1;;align=center;verticalAlign=middle;" connectable="0" vertex="1" parent="SyitlZRRvDJ0lu8L_DGC-43">
          <mxGeometry relative="1" as="geometry">
            <mxPoint x="-1" y="5" as="offset" />
          </mxGeometry>
        </mxCell>
        <mxCell id="SyitlZRRvDJ0lu8L_DGC-45" value="" style="endArrow=classic;html=1;rounded=0;exitX=1;exitY=0;exitDx=0;exitDy=0;entryX=0;entryY=0.5;entryDx=0;entryDy=0;" edge="1" parent="1" source="SyitlZRRvDJ0lu8L_DGC-12" target="SyitlZRRvDJ0lu8L_DGC-14">
          <mxGeometry relative="1" as="geometry">
            <mxPoint x="299.99640687119273" y="89.21572875253821" as="sourcePoint" />
            <mxPoint x="375" y="38" as="targetPoint" />
          </mxGeometry>
        </mxCell>
        <mxCell id="SyitlZRRvDJ0lu8L_DGC-46" value="EXTENDS" style="edgeLabel;resizable=0;html=1;;align=center;verticalAlign=middle;" connectable="0" vertex="1" parent="SyitlZRRvDJ0lu8L_DGC-45">
          <mxGeometry relative="1" as="geometry">
            <mxPoint x="-1" y="5" as="offset" />
          </mxGeometry>
        </mxCell>
        <mxCell id="SyitlZRRvDJ0lu8L_DGC-47" value="" style="endArrow=classic;html=1;rounded=0;exitX=0;exitY=1;exitDx=0;exitDy=0;" edge="1" parent="1" source="SyitlZRRvDJ0lu8L_DGC-22" target="SyitlZRRvDJ0lu8L_DGC-24">
          <mxGeometry relative="1" as="geometry">
            <mxPoint x="270" y="295" as="sourcePoint" />
            <mxPoint x="346" y="363" as="targetPoint" />
          </mxGeometry>
        </mxCell>
        <mxCell id="SyitlZRRvDJ0lu8L_DGC-48" value="EXTENDS" style="edgeLabel;resizable=0;html=1;;align=center;verticalAlign=middle;" connectable="0" vertex="1" parent="SyitlZRRvDJ0lu8L_DGC-47">
          <mxGeometry relative="1" as="geometry">
            <mxPoint x="-1" y="5" as="offset" />
          </mxGeometry>
        </mxCell>
        <mxCell id="SyitlZRRvDJ0lu8L_DGC-49" value="" style="endArrow=classic;html=1;rounded=0;exitX=1;exitY=0.5;exitDx=0;exitDy=0;entryX=0;entryY=0.5;entryDx=0;entryDy=0;" edge="1" parent="1" source="SyitlZRRvDJ0lu8L_DGC-20" target="SyitlZRRvDJ0lu8L_DGC-18">
          <mxGeometry relative="1" as="geometry">
            <mxPoint x="501" y="620" as="sourcePoint" />
            <mxPoint x="370" y="550" as="targetPoint" />
          </mxGeometry>
        </mxCell>
        <mxCell id="SyitlZRRvDJ0lu8L_DGC-50" value="INCLUDE" style="edgeLabel;resizable=0;html=1;;align=center;verticalAlign=middle;" connectable="0" vertex="1" parent="SyitlZRRvDJ0lu8L_DGC-49">
          <mxGeometry relative="1" as="geometry">
            <mxPoint x="-1" y="5" as="offset" />
          </mxGeometry>
        </mxCell>
        <mxCell id="SyitlZRRvDJ0lu8L_DGC-51" value="" style="endArrow=classic;html=1;rounded=0;entryX=0.5;entryY=1;entryDx=0;entryDy=0;" edge="1" parent="1" source="SyitlZRRvDJ0lu8L_DGC-17" target="SyitlZRRvDJ0lu8L_DGC-20">
          <mxGeometry relative="1" as="geometry">
            <mxPoint x="290" y="635" as="sourcePoint" />
            <mxPoint x="238" y="640" as="targetPoint" />
          </mxGeometry>
        </mxCell>
        <mxCell id="SyitlZRRvDJ0lu8L_DGC-52" value="INCLUDE" style="edgeLabel;resizable=0;html=1;;align=center;verticalAlign=middle;" connectable="0" vertex="1" parent="SyitlZRRvDJ0lu8L_DGC-51">
          <mxGeometry relative="1" as="geometry">
            <mxPoint x="-1" y="5" as="offset" />
          </mxGeometry>
        </mxCell>
        <mxCell id="SyitlZRRvDJ0lu8L_DGC-53" value="" style="endArrow=classic;html=1;rounded=0;exitX=0.602;exitY=0.017;exitDx=0;exitDy=0;exitPerimeter=0;entryX=0.304;entryY=0.989;entryDx=0;entryDy=0;entryPerimeter=0;" edge="1" parent="1" source="SyitlZRRvDJ0lu8L_DGC-20" target="SyitlZRRvDJ0lu8L_DGC-19">
          <mxGeometry relative="1" as="geometry">
            <mxPoint x="300" y="645" as="sourcePoint" />
            <mxPoint x="390" y="540" as="targetPoint" />
          </mxGeometry>
        </mxCell>
        <mxCell id="SyitlZRRvDJ0lu8L_DGC-54" value="INCLUDE" style="edgeLabel;resizable=0;html=1;;align=center;verticalAlign=middle;" connectable="0" vertex="1" parent="SyitlZRRvDJ0lu8L_DGC-53">
          <mxGeometry relative="1" as="geometry">
            <mxPoint x="-1" y="5" as="offset" />
          </mxGeometry>
        </mxCell>
        <mxCell id="SyitlZRRvDJ0lu8L_DGC-55" value="" style="endArrow=classic;html=1;rounded=0;exitX=0.5;exitY=1;exitDx=0;exitDy=0;" edge="1" parent="1" source="SyitlZRRvDJ0lu8L_DGC-31" target="SyitlZRRvDJ0lu8L_DGC-32">
          <mxGeometry relative="1" as="geometry">
            <mxPoint x="305" y="652" as="sourcePoint" />
            <mxPoint x="299" y="710" as="targetPoint" />
            <Array as="points">
              <mxPoint x="820" y="740" />
            </Array>
          </mxGeometry>
        </mxCell>
        <mxCell id="SyitlZRRvDJ0lu8L_DGC-56" value="INCLUDE" style="edgeLabel;resizable=0;html=1;;align=center;verticalAlign=middle;" connectable="0" vertex="1" parent="SyitlZRRvDJ0lu8L_DGC-55">
          <mxGeometry relative="1" as="geometry">
            <mxPoint x="-1" y="5" as="offset" />
          </mxGeometry>
        </mxCell>
        <mxCell id="SyitlZRRvDJ0lu8L_DGC-57" value="" style="endArrow=classic;html=1;rounded=0;exitX=0;exitY=0.5;exitDx=0;exitDy=0;entryX=1;entryY=0.5;entryDx=0;entryDy=0;" edge="1" parent="1" source="SyitlZRRvDJ0lu8L_DGC-31" target="SyitlZRRvDJ0lu8L_DGC-33">
          <mxGeometry relative="1" as="geometry">
            <mxPoint x="315" y="662" as="sourcePoint" />
            <mxPoint x="309" y="720" as="targetPoint" />
          </mxGeometry>
        </mxCell>
        <mxCell id="SyitlZRRvDJ0lu8L_DGC-58" value="INCLUDE" style="edgeLabel;resizable=0;html=1;;align=center;verticalAlign=middle;" connectable="0" vertex="1" parent="SyitlZRRvDJ0lu8L_DGC-57">
          <mxGeometry relative="1" as="geometry">
            <mxPoint x="-1" y="5" as="offset" />
          </mxGeometry>
        </mxCell>
        <mxCell id="SyitlZRRvDJ0lu8L_DGC-59" value="" style="endArrow=classic;html=1;rounded=0;exitX=0;exitY=0.5;exitDx=0;exitDy=0;entryX=0.994;entryY=0.753;entryDx=0;entryDy=0;entryPerimeter=0;" edge="1" parent="1" source="SyitlZRRvDJ0lu8L_DGC-31" target="SyitlZRRvDJ0lu8L_DGC-34">
          <mxGeometry relative="1" as="geometry">
            <mxPoint x="325" y="672" as="sourcePoint" />
            <mxPoint x="319" y="730" as="targetPoint" />
          </mxGeometry>
        </mxCell>
        <mxCell id="SyitlZRRvDJ0lu8L_DGC-60" value="INCLUDE" style="edgeLabel;resizable=0;html=1;;align=center;verticalAlign=middle;" connectable="0" vertex="1" parent="SyitlZRRvDJ0lu8L_DGC-59">
          <mxGeometry relative="1" as="geometry">
            <mxPoint x="-1" y="5" as="offset" />
          </mxGeometry>
        </mxCell>
        <mxCell id="SyitlZRRvDJ0lu8L_DGC-61" value="" style="endArrow=classic;html=1;rounded=0;exitX=0.39;exitY=0.02;exitDx=0;exitDy=0;entryX=1;entryY=1;entryDx=0;entryDy=0;exitPerimeter=0;" edge="1" parent="1" source="SyitlZRRvDJ0lu8L_DGC-31" target="SyitlZRRvDJ0lu8L_DGC-35">
          <mxGeometry relative="1" as="geometry">
            <mxPoint x="335" y="682" as="sourcePoint" />
            <mxPoint x="329" y="740" as="targetPoint" />
          </mxGeometry>
        </mxCell>
        <mxCell id="SyitlZRRvDJ0lu8L_DGC-62" value="INCLUDE" style="edgeLabel;resizable=0;html=1;;align=center;verticalAlign=middle;" connectable="0" vertex="1" parent="SyitlZRRvDJ0lu8L_DGC-61">
          <mxGeometry relative="1" as="geometry">
            <mxPoint x="-1" y="5" as="offset" />
          </mxGeometry>
        </mxCell>
        <mxCell id="SyitlZRRvDJ0lu8L_DGC-63" value="" style="endArrow=classic;html=1;rounded=0;exitX=0.5;exitY=0;exitDx=0;exitDy=0;entryX=0.642;entryY=0.953;entryDx=0;entryDy=0;entryPerimeter=0;" edge="1" parent="1" source="SyitlZRRvDJ0lu8L_DGC-22" target="SyitlZRRvDJ0lu8L_DGC-29">
          <mxGeometry relative="1" as="geometry">
            <mxPoint x="835" y="701" as="sourcePoint" />
            <mxPoint x="831" y="622" as="targetPoint" />
          </mxGeometry>
        </mxCell>
        <mxCell id="SyitlZRRvDJ0lu8L_DGC-64" value="INCLUDE" style="edgeLabel;resizable=0;html=1;;align=center;verticalAlign=middle;" connectable="0" vertex="1" parent="SyitlZRRvDJ0lu8L_DGC-63">
          <mxGeometry relative="1" as="geometry">
            <mxPoint x="-1" y="5" as="offset" />
          </mxGeometry>
        </mxCell>
        <mxCell id="SyitlZRRvDJ0lu8L_DGC-65" value="" style="endArrow=classic;html=1;rounded=0;exitX=0.32;exitY=0.015;exitDx=0;exitDy=0;exitPerimeter=0;" edge="1" parent="1" source="SyitlZRRvDJ0lu8L_DGC-22" target="SyitlZRRvDJ0lu8L_DGC-28">
          <mxGeometry relative="1" as="geometry">
            <mxPoint x="845" y="711" as="sourcePoint" />
            <mxPoint x="841" y="632" as="targetPoint" />
          </mxGeometry>
        </mxCell>
        <mxCell id="SyitlZRRvDJ0lu8L_DGC-66" value="INCLUDE" style="edgeLabel;resizable=0;html=1;;align=center;verticalAlign=middle;" connectable="0" vertex="1" parent="SyitlZRRvDJ0lu8L_DGC-65">
          <mxGeometry relative="1" as="geometry">
            <mxPoint x="-1" y="5" as="offset" />
          </mxGeometry>
        </mxCell>
        <mxCell id="SyitlZRRvDJ0lu8L_DGC-67" value="" style="endArrow=classic;html=1;rounded=0;exitX=0;exitY=0;exitDx=0;exitDy=0;" edge="1" parent="1" source="SyitlZRRvDJ0lu8L_DGC-22" target="SyitlZRRvDJ0lu8L_DGC-27">
          <mxGeometry relative="1" as="geometry">
            <mxPoint x="855" y="721" as="sourcePoint" />
            <mxPoint x="851" y="642" as="targetPoint" />
          </mxGeometry>
        </mxCell>
        <mxCell id="SyitlZRRvDJ0lu8L_DGC-68" value="INCLUDE" style="edgeLabel;resizable=0;html=1;;align=center;verticalAlign=middle;" connectable="0" vertex="1" parent="SyitlZRRvDJ0lu8L_DGC-67">
          <mxGeometry relative="1" as="geometry">
            <mxPoint x="-1" y="5" as="offset" />
          </mxGeometry>
        </mxCell>
        <mxCell id="SyitlZRRvDJ0lu8L_DGC-69" value="" style="endArrow=classic;html=1;rounded=0;exitX=0.053;exitY=0.221;exitDx=0;exitDy=0;entryX=1;entryY=0.5;entryDx=0;entryDy=0;exitPerimeter=0;" edge="1" parent="1" source="SyitlZRRvDJ0lu8L_DGC-22" target="SyitlZRRvDJ0lu8L_DGC-26">
          <mxGeometry relative="1" as="geometry">
            <mxPoint x="865" y="731" as="sourcePoint" />
            <mxPoint x="861" y="652" as="targetPoint" />
          </mxGeometry>
        </mxCell>
        <mxCell id="SyitlZRRvDJ0lu8L_DGC-70" value="INCLUDE" style="edgeLabel;resizable=0;html=1;;align=center;verticalAlign=middle;" connectable="0" vertex="1" parent="SyitlZRRvDJ0lu8L_DGC-69">
          <mxGeometry relative="1" as="geometry">
            <mxPoint x="-1" y="5" as="offset" />
          </mxGeometry>
        </mxCell>
        <mxCell id="SyitlZRRvDJ0lu8L_DGC-71" value="" style="endArrow=classic;html=1;rounded=0;exitX=0;exitY=0.5;exitDx=0;exitDy=0;entryX=1;entryY=0.5;entryDx=0;entryDy=0;" edge="1" parent="1" source="SyitlZRRvDJ0lu8L_DGC-22" target="SyitlZRRvDJ0lu8L_DGC-25">
          <mxGeometry relative="1" as="geometry">
            <mxPoint x="875" y="741" as="sourcePoint" />
            <mxPoint x="871" y="662" as="targetPoint" />
          </mxGeometry>
        </mxCell>
        <mxCell id="SyitlZRRvDJ0lu8L_DGC-72" value="INCLUDE" style="edgeLabel;resizable=0;html=1;;align=center;verticalAlign=middle;" connectable="0" vertex="1" parent="SyitlZRRvDJ0lu8L_DGC-71">
          <mxGeometry relative="1" as="geometry">
            <mxPoint x="-1" y="5" as="offset" />
          </mxGeometry>
        </mxCell>
        <mxCell id="SyitlZRRvDJ0lu8L_DGC-73" value="" style="endArrow=classic;html=1;rounded=0;exitX=0.5;exitY=1;exitDx=0;exitDy=0;entryX=0.5;entryY=0;entryDx=0;entryDy=0;" edge="1" parent="1" source="SyitlZRRvDJ0lu8L_DGC-22" target="SyitlZRRvDJ0lu8L_DGC-30">
          <mxGeometry relative="1" as="geometry">
            <mxPoint x="885" y="751" as="sourcePoint" />
            <mxPoint x="881" y="672" as="targetPoint" />
          </mxGeometry>
        </mxCell>
        <mxCell id="SyitlZRRvDJ0lu8L_DGC-74" value="INCLUDE" style="edgeLabel;resizable=0;html=1;;align=center;verticalAlign=middle;" connectable="0" vertex="1" parent="SyitlZRRvDJ0lu8L_DGC-73">
          <mxGeometry relative="1" as="geometry">
            <mxPoint x="-1" y="5" as="offset" />
          </mxGeometry>
        </mxCell>
        <mxCell id="SyitlZRRvDJ0lu8L_DGC-75" value="ADMINISTRADOR" style="text;html=1;align=center;verticalAlign=middle;resizable=0;points=[];autosize=1;strokeColor=none;fillColor=none;" vertex="1" parent="1">
          <mxGeometry x="1270" y="880" width="120" height="30" as="geometry" />
        </mxCell>
        <mxCell id="SyitlZRRvDJ0lu8L_DGC-80" value="" style="endArrow=none;html=1;rounded=0;exitX=0.157;exitY=0.074;exitDx=0;exitDy=0;exitPerimeter=0;" edge="1" parent="1" target="SyitlZRRvDJ0lu8L_DGC-7">
          <mxGeometry width="50" height="50" relative="1" as="geometry">
            <mxPoint x="209.55999999999995" y="39.9200000000003" as="sourcePoint" />
            <mxPoint x="840" y="250" as="targetPoint" />
            <Array as="points">
              <mxPoint x="210" y="-50" />
              <mxPoint x="1320" y="-50" />
            </Array>
          </mxGeometry>
        </mxCell>
        <mxCell id="SyitlZRRvDJ0lu8L_DGC-81" value="" style="endArrow=none;html=1;rounded=0;entryX=0;entryY=0.5;entryDx=0;entryDy=0;" edge="1" parent="1" target="SyitlZRRvDJ0lu8L_DGC-12">
          <mxGeometry width="50" height="50" relative="1" as="geometry">
            <mxPoint x="1325" y="930" as="sourcePoint" />
            <mxPoint x="117.63999999999987" y="300" as="targetPoint" />
            <Array as="points">
              <mxPoint x="1330" y="920" />
              <mxPoint x="1325" y="1030" />
              <mxPoint x="58" y="1030" />
              <mxPoint x="58" y="290" />
            </Array>
          </mxGeometry>
        </mxCell>
        <mxCell id="SyitlZRRvDJ0lu8L_DGC-82" value="" style="endArrow=none;html=1;rounded=0;exitX=1;exitY=0.5;exitDx=0;exitDy=0;entryX=0.419;entryY=1.033;entryDx=0;entryDy=0;entryPerimeter=0;" edge="1" parent="1" source="SyitlZRRvDJ0lu8L_DGC-31" target="SyitlZRRvDJ0lu8L_DGC-86">
          <mxGeometry width="50" height="50" relative="1" as="geometry">
            <mxPoint x="40" y="151.07692307692332" as="sourcePoint" />
            <mxPoint x="-70" y="170" as="targetPoint" />
            <Array as="points">
              <mxPoint x="1020" y="715" />
              <mxPoint x="1030" y="990" />
              <mxPoint x="-70" y="1000" />
            </Array>
          </mxGeometry>
        </mxCell>
        <mxCell id="SyitlZRRvDJ0lu8L_DGC-83" value="" style="endArrow=none;html=1;rounded=0;exitX=1;exitY=0.5;exitDx=0;exitDy=0;" edge="1" parent="1" source="SyitlZRRvDJ0lu8L_DGC-31" target="SyitlZRRvDJ0lu8L_DGC-7">
          <mxGeometry width="50" height="50" relative="1" as="geometry">
            <mxPoint x="1180" y="640" as="sourcePoint" />
            <mxPoint x="1230" y="590" as="targetPoint" />
            <Array as="points">
              <mxPoint x="1030" y="715" />
            </Array>
          </mxGeometry>
        </mxCell>
        <mxCell id="SyitlZRRvDJ0lu8L_DGC-84" value="" style="endArrow=none;html=1;rounded=0;entryX=1;entryY=0.5;entryDx=0;entryDy=0;" edge="1" parent="1" source="SyitlZRRvDJ0lu8L_DGC-7" target="SyitlZRRvDJ0lu8L_DGC-22">
          <mxGeometry width="50" height="50" relative="1" as="geometry">
            <mxPoint x="1180" y="640" as="sourcePoint" />
            <mxPoint x="1230" y="590" as="targetPoint" />
            <Array as="points">
              <mxPoint x="1220" y="315" />
            </Array>
          </mxGeometry>
        </mxCell>
        <mxCell id="SyitlZRRvDJ0lu8L_DGC-85" value="" style="endArrow=none;html=1;rounded=0;exitX=0;exitY=0.5;exitDx=0;exitDy=0;entryX=0;entryY=1;entryDx=0;entryDy=0;entryPerimeter=0;" edge="1" parent="1" source="SyitlZRRvDJ0lu8L_DGC-20" target="SyitlZRRvDJ0lu8L_DGC-7">
          <mxGeometry width="50" height="50" relative="1" as="geometry">
            <mxPoint x="920" y="670" as="sourcePoint" />
            <mxPoint x="970" y="620" as="targetPoint" />
            <Array as="points">
              <mxPoint x="80" y="970" />
              <mxPoint x="1260" y="970" />
            </Array>
          </mxGeometry>
        </mxCell>
        <mxCell id="SyitlZRRvDJ0lu8L_DGC-86" value="CLIENTE" style="text;html=1;align=center;verticalAlign=middle;resizable=0;points=[];autosize=1;strokeColor=none;fillColor=none;" vertex="1" parent="1">
          <mxGeometry x="-105" y="110" width="70" height="30" as="geometry" />
        </mxCell>
        <mxCell id="SyitlZRRvDJ0lu8L_DGC-87" value="" style="rounded=0;whiteSpace=wrap;html=1;fillColor=none;fontColor=#ffffff;strokeColor=#A50040;strokeWidth=5;" vertex="1" parent="1">
          <mxGeometry x="10" y="-30" width="1200" height="960" as="geometry" />
        </mxCell>
      </root>
    </mxGraphModel>
  </diagram>
</mxfile>
